<?xml version="1.0" encoding="iso-8859-1"?>
<!-- Generator: Adobe Illustrator 19.0.0, SVG Export Plug-In . SVG Version: 6.00 Build 0)  -->
<svg version="1.1" id="Layer_1" xmlns="http://www.w3.org/2000/svg" xmlns:xlink="http://www.w3.org/1999/xlink" x="0px" y="0px"
	 viewBox="0 0 472 472" style="enable-background:new 0 0 472 472;" xml:space="preserve">
<path style="fill:#E94545;" d="M384,448.8c-24-24-72-78.4-72-108.8c0-40,32-72,72-72s72,32,72,72C456,370.4,408,424.8,384,448.8z
	 M384,292c-26.4,0-48,21.6-48,48s21.6,48,48,48s48-21.6,48-48S410.4,292,384,292z"/>
<g>
	<path style="fill:#EE5656;" d="M336,340c0-26.4,21.6-48,48-48s48,21.6,48,48c0-40-21.6-72-48-72S336,300,336,340z"/>
	<path style="fill:#EE5656;" d="M384,388c-24.8,0-44.8-18.4-48-42.4c3.2,31.2,32.8,80.8,48,103.2c15.2-23.2,44.8-72,48-103.2
		C428.8,369.6,408.8,388,384,388z"/>
</g>
<path style="fill:#E94545;" d="M88,200.8c-24-24-72-78.4-72-108.8c0-40,32-72,72-72s72,32,72,72C160,123.2,112,176.8,88,200.8z
	 M40,92c0,26.4,21.6,48,48,48s48-21.6,48-48s-21.6-48-48-48S40,65.6,40,92z"/>
<g>
	<path style="fill:#EE5656;" d="M40,92c0-26.4,21.6-48,48-48s48,21.6,48,48c0-40-21.6-72-48-72S40,52,40,92z"/>
	<path style="fill:#EE5656;" d="M88,140c-24.8,0-44.8-18.4-48-42.4c3.2,31.2,32.8,80.8,48,103.2c15.2-23.2,44.8-72,48-103.2
		C132.8,121.6,112.8,140,88,140z"/>
</g>
<g>
	<path style="fill:#42210B;" d="M384,388c-26.4,0-48-21.6-48-48s21.6-48,48-48s48,21.6,48,48S410.4,388,384,388z M384,308
		c-17.6,0-32,14.4-32,32s14.4,32,32,32s32-14.4,32-32S401.6,308,384,308z"/>
	<path style="fill:#42210B;" d="M378.4,465.6c-3.2-3.2-82.4-78.4-82.4-125.6c0-48.8,39.2-88,88-88s88,39.2,88,88
		c0,47.2-79.2,122.4-82.4,125.6c-1.6,1.6-3.2,2.4-5.6,2.4S380,467.2,378.4,465.6z M312,340c0,31.2,48,84.8,72,108.8
		c24-24,72-78.4,72-108.8c0-40-32-72-72-72S312,300,312,340z"/>
	<path style="fill:#42210B;" d="M248,204c26.4,0,48,21.6,48,48s-21.6,48-48,48v-16c17.6,0,32-14.4,32-32s-14.4-32-32-32H136v-16H248
		z"/>
	<rect x="144" y="284" style="fill:#42210B;" width="80" height="16"/>
	<path style="fill:#42210B;" d="M88,124c17.6,0,32-14.4,32-32s-14.4-32-32-32S56,74.4,56,92S70.4,124,88,124z M40,92
		c0-26.4,21.6-48,48-48s48,21.6,48,48s-21.6,48-48,48S40,118.4,40,92z"/>
	<path style="fill:#42210B;" d="M24,332c0-26.4,21.6-48,48-48h56v16H72c-17.6,0-32,14.4-32,32s14.4,32,32,32h192v16H72
		C45.6,380,24,358.4,24,332z"/>
	<path style="fill:#42210B;" d="M82.4,217.6C79.2,214.4,0,139.2,0,92C0,43.2,39.2,4,88,4s88,39.2,88,88
		c0,47.2-79.2,122.4-82.4,125.6c-1.6,1.6-3.2,2.4-5.6,2.4S84,219.2,82.4,217.6z M88,200.8c24-24,72-78.4,72-108.8c0-40-32-72-72-72
		S16,52,16,92C16,123.2,64,176.8,88,200.8z"/>
</g>
<g>
</g>
<g>
</g>
<g>
</g>
<g>
</g>
<g>
</g>
<g>
</g>
<g>
</g>
<g>
</g>
<g>
</g>
<g>
</g>
<g>
</g>
<g>
</g>
<g>
</g>
<g>
</g>
<g>
</g>
</svg>
