<?xml version="1.0" encoding="iso-8859-1"?>
<!-- Generator: Adobe Illustrator 19.0.0, SVG Export Plug-In . SVG Version: 6.00 Build 0)  -->
<svg version="1.1" id="Layer_1" xmlns="http://www.w3.org/2000/svg" xmlns:xlink="http://www.w3.org/1999/xlink" x="0px" y="0px"
	 viewBox="0 0 511.672 511.672" style="enable-background:new 0 0 511.672 511.672;" xml:space="preserve">
<polygon style="fill:#ED5564;" points="405.084,106.588 255.836,188.441 106.596,106.588 188.442,255.836 106.596,405.068 
	255.836,323.231 405.084,405.068 323.231,255.836 "/>
<g>
	<polygon style="fill:#DA4453;" points="255.836,255.836 323.231,255.836 405.084,106.588 	"/>
	<polygon style="fill:#DA4453;" points="255.836,255.836 255.836,323.231 405.084,405.068 	"/>
	<polygon style="fill:#DA4453;" points="255.836,255.836 188.442,255.836 106.596,405.068 	"/>
	<polygon style="fill:#DA4453;" points="255.836,255.836 255.836,188.441 106.596,106.588 	"/>
</g>
<polygon style="fill:#5D9CEC;" points="313.611,313.596 511.672,255.836 313.611,198.061 255.836,0 198.068,198.061 0,255.836 
	198.068,313.596 255.836,511.672 "/>
<g>
	<polygon style="fill:#4A89DC;" points="255.836,0 255.836,255.836 313.611,198.061 	"/>
	<polygon style="fill:#4A89DC;" points="511.672,255.836 255.836,255.836 313.611,313.596 	"/>
	<polygon style="fill:#4A89DC;" points="255.836,511.672 255.836,255.836 198.068,313.596 	"/>
	<polygon style="fill:#4A89DC;" points="0,255.836 255.836,255.836 198.068,198.061 	"/>
</g>
<g>
</g>
<g>
</g>
<g>
</g>
<g>
</g>
<g>
</g>
<g>
</g>
<g>
</g>
<g>
</g>
<g>
</g>
<g>
</g>
<g>
</g>
<g>
</g>
<g>
</g>
<g>
</g>
<g>
</g>
</svg>
